{
    "asset" : {
        "generator" : "Khronos glTF Blender I/O v1.1.46",
        "version" : "2.0"
    },
    "scene" : 0,
    "scenes" : [
        {
            "name" : "Scene",
            "nodes" : [
                0,
                1,
                2
            ]
        }
    ],
    "nodes" : [
        {
            "mesh" : 0,
            "name" : "Cube"
        },
        {
            "mesh" : 1,
            "name" : "Cube.001",
            "translation" : [
                0.8999999761581421,
                0.800000011920929,
                0.9599999785423279
            ]
        },
        {
            "mesh" : 2,
            "name" : "Cube.002",
            "translation" : [
                0.8999999761581421,
                -0.6000000238418579,
                0.9499999284744263
            ]
        }
    ],
    "materials" : [
        {
            "doubleSided" : true,
            "emissiveFactor" : [
                0,
                0,
                0
            ],
            "name" : "Material",
            "pbrMetallicRoughness" : {
                "baseColorTexture" : {
                    "index" : 0,
                    "texCoord" : 0
                },
                "metallicFactor" : 0,
                "roughnessFactor" : 0.4000000059604645
            }
        }
    ],
    "meshes" : [
        {
            "name" : "Cube",
            "primitives" : [
                {
                    "attributes" : {
                        "POSITION" : 0,
                        "NORMAL" : 1,
                        "TEXCOORD_0" : 2
                    },
                    "indices" : 3,
                    "material" : 0
                }
            ]
        },
        {
            "name" : "Cube.001",
            "primitives" : [
                {
                    "attributes" : {
                        "POSITION" : 4,
                        "NORMAL" : 5,
                        "TEXCOORD_0" : 6
                    },
                    "indices" : 7,
                    "material" : 0
                }
            ]
        },
        {
            "name" : "Cube.002",
            "primitives" : [
                {
                    "attributes" : {
                        "POSITION" : 8,
                        "NORMAL" : 9,
                        "TEXCOORD_0" : 10
                    },
                    "indices" : 11,
                    "material" : 0
                }
            ]
        }
    ],
    "textures" : [
        {
            "source" : 0
        }
    ],
    "images" : [
        {
            "mimeType" : "image/jpeg",
            "name" : "texture",
            "uri" : "textures/texture.jpg"
        }
    ],
    "accessors" : [
        {
            "bufferView" : 0,
            "componentType" : 5126,
            "count" : 130,
            "max" : [
                1,
                1.600000023841858,
                1
            ],
            "min" : [
                -1,
                -1.600000023841858,
                -1
            ],
            "type" : "VEC3"
        },
        {
            "bufferView" : 1,
            "componentType" : 5126,
            "count" : 130,
            "type" : "VEC3"
        },
        {
            "bufferView" : 2,
            "componentType" : 5126,
            "count" : 130,
            "type" : "VEC2"
        },
        {
            "bufferView" : 3,
            "componentType" : 5123,
            "count" : 240,
            "type" : "SCALAR"
        },
        {
            "bufferView" : 4,
            "componentType" : 5126,
            "count" : 536,
            "max" : [
                0.10000002384185791,
                0.4800000786781311,
                0.4598289132118225
            ],
            "min" : [
                -1.899999976158142,
                -0.47999998927116394,
                0
            ],
            "type" : "VEC3"
        },
        {
            "bufferView" : 5,
            "componentType" : 5126,
            "count" : 536,
            "type" : "VEC3"
        },
        {
            "bufferView" : 6,
            "componentType" : 5126,
            "count" : 536,
            "type" : "VEC2"
        },
        {
            "bufferView" : 7,
            "componentType" : 5123,
            "count" : 852,
            "type" : "SCALAR"
        },
        {
            "bufferView" : 8,
            "componentType" : 5126,
            "count" : 552,
            "max" : [
                0.10000002384185791,
                0.7200000286102295,
                0.4698289632797241
            ],
            "min" : [
                -1.899999976158142,
                -0.7200000286102295,
                0
            ],
            "type" : "VEC3"
        },
        {
            "bufferView" : 9,
            "componentType" : 5126,
            "count" : 552,
            "type" : "VEC3"
        },
        {
            "bufferView" : 10,
            "componentType" : 5126,
            "count" : 552,
            "type" : "VEC2"
        },
        {
            "bufferView" : 11,
            "componentType" : 5123,
            "count" : 852,
            "type" : "SCALAR"
        }
    ],
    "bufferViews" : [
        {
            "buffer" : 0,
            "byteLength" : 1560,
            "byteOffset" : 0
        },
        {
            "buffer" : 0,
            "byteLength" : 1560,
            "byteOffset" : 1560
        },
        {
            "buffer" : 0,
            "byteLength" : 1040,
            "byteOffset" : 3120
        },
        {
            "buffer" : 0,
            "byteLength" : 480,
            "byteOffset" : 4160
        },
        {
            "buffer" : 0,
            "byteLength" : 6432,
            "byteOffset" : 4640
        },
        {
            "buffer" : 0,
            "byteLength" : 6432,
            "byteOffset" : 11072
        },
        {
            "buffer" : 0,
            "byteLength" : 4288,
            "byteOffset" : 17504
        },
        {
            "buffer" : 0,
            "byteLength" : 1704,
            "byteOffset" : 21792
        },
        {
            "buffer" : 0,
            "byteLength" : 6624,
            "byteOffset" : 23496
        },
        {
            "buffer" : 0,
            "byteLength" : 6624,
            "byteOffset" : 30120
        },
        {
            "buffer" : 0,
            "byteLength" : 4416,
            "byteOffset" : 36744
        },
        {
            "buffer" : 0,
            "byteLength" : 1704,
            "byteOffset" : 41160
        }
    ],
    "buffers" : [
        {
            "byteLength" : 42864,
            "uri" : "cumi.bin"
        }
    ]
}
